PathFileType	3	(X/Y/Z)	dance_move_1__view2_aligned.trc
DataRate	CameraRate	NumFrames	NumMarkers	Units	OrigDataRate	OrigDataStartFrame	OrigNumFrames
100.0	100.0	7	19	mm	100.0	244	890
Frame#	Time	pelvis			neck			head			hip_left			hip_right			knee_left			knee_right			ankle_left			ankle_right			heel_left			heel_right			toe_left			toe_right			shoulder_left			shoulder_right			elbow_left			elbow_right			wrist_left			wrist_right			
		X1	Y1	Z1	X2	Y2	Z2	X3	Y3	Z3	X4	Y4	Z4	X5	Y5	Z5	X6	Y6	Z6	X7	Y7	Z7	X8	Y8	Z8	X9	Y9	Z9	X10	Y10	Z10	X11	Y11	Z11	X12	Y12	Z12	X13	Y13	Z13	X14	Y14	Z14	X15	Y15	Z15	X16	Y16	Z16	X17	Y17	Z17	X18	Y18	Z18	X19	Y19	Z19	
244	2.43000	97.546205	724.456240	112.812855	77.622096	1197.947013	-195.536968	56.919041	1221.855619	-360.986020	23.800118	724.526145	129.664592	171.292386	724.386333	95.961140	-187.458572	468.457435	-105.521890	145.983701	416.955267	-171.658242	-131.796216	119.220350	48.438978	169.294108	72.482047	-3.758863	-115.150313	79.060562	88.634953	173.626390	32.837892	39.823620	-171.830823	44.006394	-118.527986	161.958860	-0.992240	-176.569147	-104.278030	1165.866260	-144.369314	256.605620	1148.208978	-171.982907	-151.310976	881.548084	-148.496808	363.536138	878.089261	-174.101447	-155.651194	633.675889	-200.868279	327.435281	654.239420	-282.428216
245	2.44000	96.804587	725.322335	113.962273	76.791797	1198.031108	-195.113557	56.323775	1221.794669	-360.429906	23.005826	725.263218	130.365741	170.603492	725.381448	97.558832	-184.399087	468.551262	-106.779170	148.825071	418.643199	-170.577502	-131.164819	119.321503	47.884746	171.225384	73.405039	-3.618081	-115.094644	79.153860	88.179711	175.200141	33.658393	39.832168	-169.954947	44.320080	-119.288396	165.150057	0.137673	-176.394086	-105.114961	1165.369883	-144.417252	255.872491	1148.642276	-171.892957	-150.405899	880.853108	-148.260400	360.167634	878.193351	-175.114723	-151.458286	633.995077	-200.334941	320.573067	655.764581	-282.050301
246	2.45000	96.062970	726.188430	115.111690	75.961499	1198.115203	-194.690147	55.728508	1221.733719	-359.873791	22.211534	726.000291	131.066889	169.914597	726.376563	99.156524	-181.339603	468.645089	-108.036450	151.666440	420.331131	-169.496763	-130.533422	119.422656	47.330513	173.156660	74.328031	-3.477300	-115.038974	79.247158	87.724470	176.773893	34.478894	39.840716	-168.079071	44.633766	-120.048806	168.341255	1.267585	-176.219026	-105.951891	1164.873505	-144.465190	255.139363	1149.075574	-171.803007	-149.500823	880.158132	-148.023992	356.799131	878.297441	-176.128000	-147.265379	634.314266	-199.801603	313.710852	657.289742	-281.672386
247	2.46000	95.321353	727.054525	116.261108	75.131200	1198.199298	-194.266737	55.133241	1221.672769	-359.317677	21.417242	726.737364	131.768037	169.225702	727.371678	100.754216	-178.280119	468.738916	-109.293730	154.507810	422.019063	-168.416024	-129.902024	119.523809	46.776281	175.087936	75.251022	-3.336518	-114.983305	79.340455	87.269228	178.347644	35.299395	39.849264	-166.203196	44.947451	-120.809217	171.532452	2.397498	-176.043965	-106.788821	1164.377128	-144.513128	254.406234	1149.508872	-171.713057	-148.595747	879.463156	-147.787585	353.430627	878.401532	-177.141276	-143.072471	634.633455	-199.268265	306.848637	658.814903	-281.294471
248	2.47000	94.579735	727.920620	117.410526	74.300902	1198.283393	-193.843327	54.537975	1221.611819	-358.761563	20.622950	727.474437	132.469185	168.536807	728.366793	102.351908	-175.220635	468.832744	-110.551010	157.349179	423.706996	-167.335284	-129.270627	119.624962	46.222049	177.019212	76.174014	-3.195736	-114.927636	79.433753	86.813986	179.921395	36.119896	39.857812	-164.327320	45.261137	-121.569627	174.723650	3.527411	-175.868905	-107.625752	1163.880751	-144.561066	253.673106	1149.942170	-171.623107	-147.690670	878.768179	-147.551177	350.062124	878.505622	-178.154553	-138.879564	634.952643	-198.734927	299.986423	660.340064	-280.916557
249	2.48000	93.838118	728.786715	118.559944	73.470603	1198.367488	-193.419917	53.942708	1221.550869	-358.205449	19.828658	728.211510	133.170333	167.847912	729.361908	103.949599	-172.161151	468.926571	-111.808291	160.190548	425.394928	-166.254545	-128.639229	119.726115	45.667816	178.950488	77.097006	-3.054955	-114.871966	79.527051	86.358745	181.495146	36.940397	39.866361	-162.451444	45.574822	-122.330037	177.914847	4.657323	-175.693844	-108.462682	1163.384374	-144.609004	252.939977	1150.375468	-171.533157	-146.785594	878.073203	-147.314769	346.693620	878.609712	-179.167829	-134.686656	635.271832	-198.201589	293.124208	661.865225	-280.538642
250	2.49000	93.096500	729.652809	119.709362	72.640304	1198.451584	-192.996506	53.347442	1221.489919	-357.649335	19.034366	728.948583	133.871481	167.159018	730.357023	105.547291	-169.101667	469.020398	-113.065571	163.031918	427.082860	-165.173806	-128.007832	119.827268	45.113584	180.881764	78.019997	-2.914173	-114.816297	79.620348	85.903503	183.068897	37.760898	39.874909	-160.575569	45.888508	-123.090447	181.106045	5.787236	-175.518784	-109.299613	1162.887997	-144.656942	252.206849	1150.808767	-171.443207	-145.880518	877.378227	-147.078361	343.325116	878.713802	-180.181106	-130.493748	635.591020	-197.668251	286.261994	663.390386	-280.160727
